HIERARCHY
ROOT Hips
{
	OFFSET	0.00	0.00	0.00
	CHANNELS 6 Xposition Yposition Zposition Zrotation Xrotation Yrotation
	JOINT LeftUpLeg
	{
		OFFSET	 0.126116	-0.014019	-0.065224
		CHANNELS 3 Zrotation Xrotation Yrotation
		JOINT LeftLeg
		{
			OFFSET	 0.000000	 0.000000	 0.569914
			CHANNELS 3 Zrotation Xrotation Yrotation
			JOINT LeftFoot
			{
				OFFSET	 0.000000	 0.000000	 0.544423
				CHANNELS 3 Zrotation Xrotation Yrotation
				JOINT LeftToeBase
				{
					OFFSET	 0.000000	 0.000000	 0.207117
					CHANNELS 3 Zrotation Xrotation Yrotation
					End Site
					{
						OFFSET	 0.000000	 0.000000	 0.207117
					}
				}
			}
		}
	}
	JOINT RightUpLeg
	{
		OFFSET	-0.124023	-0.008373	-0.065224
		CHANNELS 3 Zrotation Xrotation Yrotation
		JOINT RightLeg
		{
			OFFSET	 0.000000	 0.000000	 0.570047
			CHANNELS 3 Zrotation Xrotation Yrotation
			JOINT RightFoot
			{
				OFFSET	 0.000000	 0.000000	 0.544354
				CHANNELS 3 Zrotation Xrotation Yrotation
				JOINT RightToeBase
				{
					OFFSET	 0.000000	 0.000000	 0.207540
					CHANNELS 3 Zrotation Xrotation Yrotation
					End Site
					{
						OFFSET	 0.000000	 0.000000	 0.207540
					}
				}
			}
		}
	}
	JOINT Spine
	{
		OFFSET	 0.000184	-0.007763	 0.117403
		CHANNELS 3 Zrotation Xrotation Yrotation
		JOINT Spine1
		{
			OFFSET	 0.000000	 0.000000	 0.137269
			CHANNELS 3 Zrotation Xrotation Yrotation
			JOINT Spine2
			{
				OFFSET	 0.000000	 0.000000	 0.156879
				CHANNELS 3 Zrotation Xrotation Yrotation
				JOINT LeftShoulder
				{
					OFFSET	 0.080501	-0.002496	 0.160144
					CHANNELS 3 Zrotation Xrotation Yrotation
					JOINT LeftArm
					{
						OFFSET	 0.000000	 0.000000	 0.164363
						CHANNELS 3 Zrotation Xrotation Yrotation
						JOINT LeftForeArm
						{
							OFFSET	 0.000000	 0.000000	 0.364576
							CHANNELS 3 Zrotation Xrotation Yrotation
							JOINT LeftHand
							{
								OFFSET	 0.000000	 0.000000	 0.360812
								CHANNELS 3 Zrotation Xrotation Yrotation
								JOINT LeftHandIndex1
								{
									OFFSET	 0.000000	 0.000000	 0.086006
									CHANNELS 3 Zrotation Xrotation Yrotation
									JOINT LeftHandIndex2
									{
										OFFSET	 0.000000	 0.000000	 0.047236
										CHANNELS 3 Zrotation Xrotation Yrotation
										JOINT LeftHandIndex3
										{
											OFFSET	-0.004284	-0.000551	 0.038166
											CHANNELS 3 Zrotation Xrotation Yrotation
											End Site
											{
												OFFSET	-0.004284	-0.000551	 0.038166
											}
										}
									}
								}
							}
						}
					}
				}
				JOINT Neck
				{
					OFFSET	 0.000000	 0.000000	 0.176489
					CHANNELS 3 Zrotation Xrotation Yrotation
					JOINT Head
					{
						OFFSET	 0.000000	-0.001747	 0.077940
						CHANNELS 3 Zrotation Xrotation Yrotation
						End Site
						{
							OFFSET	 0.000000	-0.001747	 0.077940
						}
					}
				}
				JOINT RightShoulder
				{
					OFFSET	-0.080363	 0.000306	 0.159706
					CHANNELS 3 Zrotation Xrotation Yrotation
					JOINT RightArm
					{
						OFFSET	 0.000000	 0.000000	 0.164196
						CHANNELS 3 Zrotation Xrotation Yrotation
						JOINT RightForeArm
						{
							OFFSET	 0.000000	 0.000000	 0.365611
							CHANNELS 3 Zrotation Xrotation Yrotation
							JOINT RightHand
							{
								OFFSET	 0.000000	 0.000000	 0.360648
								CHANNELS 3 Zrotation Xrotation Yrotation
								JOINT RightHandIndex1
								{
									OFFSET	 0.000000	 0.000000	 0.069977
									CHANNELS 3 Zrotation Xrotation Yrotation
									JOINT RightHandIndex2
									{
										OFFSET	 0.000000	 0.000000	 0.052305
										CHANNELS 3 Zrotation Xrotation Yrotation
										JOINT RightHandIndex3
										{
											OFFSET	 0.009002	-0.000782	 0.042196
											CHANNELS 3 Zrotation Xrotation Yrotation
											End Site
											{
												OFFSET	 0.009002	-0.000782	 0.042196
											}
										}
									}
								}
							}
						}
					}
				}
			}
		}
	}
}
MOTION
Frames:    7
Frame Time: 0.03333334
-0.057145	-2.262094	 1.156979	 4.259156	-1.751303	-3.598223	 30.760090	-14.646050	-177.394900	 0.447621	-50.901250	 0.064127	 123.586400	 82.144780	-127.472200	-2.371085	 31.330440	-0.063495	-34.084310	-36.435190	-175.683300	 13.163800	-61.078480	 12.185540	 1.443419	 76.503380	 6.491414	 2.358006	 33.141120	 0.106506	 8.611382	 8.913263	 1.027160	 1.372981	 3.367378	 2.794703	-7.853469	-2.835099	-3.671192	-93.795350	 58.886900	 175.702500	 8.528570	 25.018430	-43.021470	 15.122960	-1.903788	-6.599813	-14.966890	-4.172029	-7.531692	-4.869405	 19.241460	-2.786448	-3.889697	 21.368100	 2.211060	-4.808244	 5.545662	 0.146960	-0.118159	-5.024671	 0.162607	-9.900372	 1.812952	 2.266820	 89.823910	 61.592460	-179.900700	-18.228510	 47.383080	 13.421000	-17.222760	-1.964090	 6.650545	 10.910280	 7.979223	-1.482260	 6.302700	 25.810500	-0.571235	 1.754370	 45.738930	-6.875885	 0.378375	 24.921190	 3.643909
-0.058699	-2.300122	 1.155856	 4.808708	-1.484614	-3.589818	 29.722860	-12.988510	-178.481200	 0.879675	-50.237420	 0.405079	 134.268200	 82.218830	-138.090500	-2.370116	 31.494980	-0.067209	-36.327310	-38.605900	-178.588100	 12.294680	-57.102840	 11.015440	-6.587371	 76.507140	 15.246100	 2.358577	 33.058930	 0.104589	 4.402127	 8.782029	 0.984765	 1.236493	 3.548615	 2.743650	-7.943615	-3.010028	-3.642244	-93.897360	 58.968210	 175.475300	 7.272410	 22.936730	-43.326390	 16.526080	-2.375647	-7.312062	-14.748470	-4.114739	-8.458540	-4.869152	 19.246520	-2.786505	-3.885612	 21.420400	 2.206912	-4.808259	 5.545467	 0.146969	-0.087687	-5.061083	 0.178122	-9.876272	 1.792017	 2.135329	 89.791870	 61.633130	-179.976800	-18.371220	 48.489760	 12.015600	-19.355620	-2.446575	 7.365593	 10.992840	 8.200377	-1.682276	 6.296143	 25.112590	-0.548713	 1.852537	 44.965740	-6.963707	 0.494548	 24.415190	 3.584381
-0.060357	-2.337328	 1.153094	 5.341340	-1.136662	-3.604047	 28.758840	-11.506320	-179.449400	 1.233706	-49.703370	 0.671958	 144.767500	 82.041180	-148.502100	-2.369176	 31.651640	-0.070754	-38.496440	-40.404290	 178.470200	 11.715420	-52.674880	 9.976564	-14.755060	 76.281980	 23.816840	 2.358941	 33.004840	 0.103339	 0.246796	 8.576751	 0.930481	 1.128354	 3.729393	 2.747046	-8.039900	-3.191571	-3.642675	-94.010220	 59.017190	 175.228200	 6.029262	 20.964780	-43.553990	 18.011800	-2.877680	-7.971457	-14.484860	-4.152786	-9.217104	-4.867337	 19.295020	-2.790059	-3.880198	 21.489760	 2.201406	-4.806985	 5.560554	 0.146087	-0.058924	-5.090411	 0.202715	-9.864079	 1.772154	 2.024096	 89.752820	 61.681450	 179.930100	-18.398890	 49.481260	 10.688300	-21.493750	-2.955939	 8.022518	 10.999050	 8.415854	-1.907929	 6.287086	 24.318440	-0.540865	 1.953851	 44.142110	-7.053947	 0.642476	 23.764090	 3.509799
-0.062251	-2.374511	 1.149115	 5.837469	-0.683812	-3.640991	 27.846680	-10.121090	 179.662400	 1.456911	-49.181350	 0.835683	 154.748700	 81.667680	-158.324400	-2.368320	 31.792880	-0.073963	-40.684760	-41.858970	 175.478500	 11.412120	-48.089580	 9.117776	-23.316680	 76.352510	 32.345110	 2.359027	 32.991620	 0.103031	-3.852592	 8.270831	 0.858944	 1.019639	 3.855602	 2.805337	-8.140414	-3.355777	-3.671299	-94.135540	 59.019430	 174.960400	 4.848800	 19.189150	-43.689420	 19.639750	-3.407607	-8.584322	-14.137090	-4.335288	-9.725728	-4.863353	 19.403100	-2.798469	-3.873044	 21.581200	 2.194135	-4.803916	 5.596718	 0.143968	-0.033378	-5.109048	 0.239289	-9.868855	 1.754534	 1.943943	 89.705090	 61.739220	 179.815700	-18.328780	 50.382050	 9.380084	-23.679370	-3.494645	 8.635778	 10.904430	 8.615587	-2.163411	 6.274320	 23.410930	-0.553632	 2.057640	 43.270210	-7.145936	 0.830171	 22.927100	 3.417171
-0.064252	-2.410249	 1.144649	 6.179019	-0.261838	-3.761721	 27.122940	-8.628532	 178.869900	 1.622185	-48.492480	 0.950733	 163.784900	 81.078870	-167.200500	-2.367221	 31.972470	-0.078046	-42.218110	-43.098820	 172.964800	 11.299590	-44.291900	 8.483931	-29.498660	 76.331990	 38.153270	 2.359770	 32.881400	 0.100470	-7.623523	 7.948413	 0.880706	 0.913202	 3.965739	 2.836243	-8.219839	-3.482827	-3.689404	-94.245600	 58.998130	 174.728600	 3.858794	 17.791480	-43.793430	 20.948910	-3.923339	-9.118963	-14.045690	-4.691511	-9.870852	-4.856952	 19.559300	-2.807266	-3.864154	 21.694480	 2.185102	-4.798974	 5.654852	 0.140564	-0.016859	-5.137337	 0.273523	-9.885648	 1.735208	 1.898698	 89.645510	 61.812030	 179.672400	-18.180090	 51.312040	 7.219528	-25.700000	-5.140900	 10.766910	 10.741980	 8.786410	-2.591601	 6.259345	 22.460410	-0.578120	 2.150795	 42.462410	-7.228087	 1.034066	 22.004210	 3.319136
-0.066407	-2.444508	 1.139376	 6.398654	 0.140895	-3.954092	 26.548120	-7.049045	 178.152600	 1.742077	-47.702870	 1.027760	 171.728700	 80.269520	-174.992900	-2.365890	 32.185540	-0.082910	-43.314510	-44.840750	 170.638900	 11.454010	-41.804880	 8.209332	-33.662240	 76.113970	 41.927340	 2.361054	 32.689990	 0.096037	-11.128300	 7.606807	 0.981459	 0.817376	 4.121795	 2.852327	-8.284431	-3.606766	-3.706082	-94.344490	 58.957150	 174.524200	 2.985377	 16.657730	-43.942420	 21.998890	-4.428194	-9.594099	-14.155020	-5.198305	-9.715977	-4.848463	 19.756800	-2.816490	-3.853718	 21.826950	 2.174499	-4.792445	 5.731702	 0.136054	-0.007583	-5.173919	 0.306127	-9.912520	 1.714306	 1.881575	 89.575770	 61.898040	 179.503500	-17.887730	 51.940510	 6.256380	-27.867100	-5.400751	 10.779210	 10.524480	 8.934740	-3.167536	 6.242086	 21.464170	-0.612495	 2.236355	 41.698700	-7.303187	 1.252370	 21.000390	 3.217239
-0.069073	-2.479638	 1.132592	 6.538737	 0.436068	-4.143669	 25.996800	-5.277241	 177.335600	 1.825689	-46.878450	 1.075245	 178.999600	 79.480880	 177.934200	-2.363132	 32.614310	-0.092749	-44.006200	-47.324700	 168.369800	 11.581660	-40.908990	 8.170763	-43.397030	 77.949930	 51.138660	 2.358705	 33.038930	 0.104130	-14.649690	 7.292539	 1.101895	 0.735049	 4.401653	 2.832664	-8.325765	-3.751225	-3.702959	-94.419240	 58.915090	 174.371800	 2.100026	 15.756180	-44.160110	 23.058300	-4.950340	-10.039550	-14.363370	-5.551336	-9.513747	-4.838255	 19.971140	-2.821338	-3.840527	 21.993780	 2.161100	-4.783011	 5.842637	 0.129527	 0.005505	-5.219843	 0.328202	-9.920590	 1.683522	 1.847388	 89.511470	 61.968310	 179.347200	-17.440920	 52.544910	 4.745626	-30.025240	-6.278247	 11.554780	 10.339470	 8.959587	-3.894618	 6.221570	 20.353460	-0.655236	 2.363539	 40.522990	-7.414141	 1.493274	 19.874100	 3.108586
